<svg width="30" height="30" viewBox="0 0 30 30" fill="none" xmlns="http://www.w3.org/2000/svg">
<g clip-path="url(#clip0_601_644)">
<path fill-rule="evenodd" clip-rule="evenodd" d="M26.7031 18.447C26.7031 18.447 29.1286 20.8425 29.7286 21.951C29.7403 21.967 29.7494 21.9847 29.7556 22.0035C30.0001 22.413 30.0601 22.734 29.9401 22.971C29.7376 23.3625 29.0521 23.559 28.8196 23.5755H24.5326C24.2341 23.5755 23.6131 23.4975 22.8571 22.9755C22.2796 22.572 21.7051 21.9075 21.1486 21.258C20.3176 20.2935 19.5991 19.4565 18.8716 19.4565C18.7798 19.4563 18.6885 19.4715 18.6016 19.5015C18.0511 19.6755 17.3521 20.46 17.3521 22.5495C17.3521 23.2035 16.8361 23.5755 16.4746 23.5755H14.5111C13.8421 23.5755 10.3591 23.3415 7.27064 20.085C3.48614 16.098 0.0871351 8.1 0.0541351 8.0295C-0.157365 7.512 0.286635 7.23 0.766635 7.23H5.09564C5.67614 7.23 5.86514 7.581 5.99714 7.896C6.15014 8.2575 6.71714 9.7035 7.64714 11.328C9.15314 13.971 10.0786 15.0465 10.8181 15.0465C10.9571 15.0469 11.0937 15.0107 11.2141 14.9415C12.1801 14.4105 12.0001 10.9605 11.9551 10.2495C11.9551 10.1115 11.9536 8.709 11.4586 8.031C11.1046 7.545 10.5016 7.356 10.1371 7.287C10.2346 7.146 10.4416 6.93 10.7071 6.8025C11.3686 6.4725 12.5641 6.4245 13.7506 6.4245H14.4091C15.6961 6.4425 16.0291 6.525 16.4971 6.6435C17.4391 6.8685 17.4571 7.479 17.3746 9.558C17.3506 10.152 17.3251 10.821 17.3251 11.6085C17.3251 11.7765 17.3176 11.964 17.3176 12.1545C17.2891 13.221 17.2516 14.4225 18.0046 14.916C18.1023 14.9768 18.2151 15.0091 18.3301 15.009C18.5911 15.009 19.3726 15.009 21.4921 11.3715C22.4221 9.765 23.1421 7.8705 23.1916 7.728C23.2336 7.6485 23.3596 7.425 23.5126 7.335C23.6215 7.27709 23.7434 7.24817 23.8666 7.251H28.9591C29.5141 7.251 29.8906 7.335 29.9641 7.545C30.0871 7.8855 29.9401 8.925 27.6151 12.069C27.2236 12.5925 26.8801 13.0455 26.5786 13.4415C24.4711 16.2075 24.4711 16.347 26.7031 18.447V18.447Z" fill="#EC1B2E"/>
</g>
<defs>
<clipPath id="clip0_601_644">
<rect width="30" height="30" fill="white"/>
</clipPath>
</defs>
</svg>
