<svg width="30" height="30" viewBox="0 0 30 30" fill="none" xmlns="http://www.w3.org/2000/svg">
<path d="M20.955 27.0544C15.9581 27.0544 11.9062 23.6794 11.9062 19.5207C11.9062 15.3582 15.9544 11.9832 20.9513 11.9832C25.9481 11.9832 30 15.3582 30 19.5207C30 21.7894 28.7813 23.835 26.8763 25.2132C26.7703 25.2884 26.6912 25.3957 26.6507 25.5192C26.6102 25.6427 26.6104 25.776 26.6513 25.8994L27.06 27.4182C27.0853 27.4893 27.1035 27.5628 27.1144 27.6375C27.1125 27.7175 27.0799 27.7936 27.0233 27.8502C26.9667 27.9068 26.8906 27.9394 26.8106 27.9413C26.749 27.9389 26.6893 27.9194 26.6381 27.885L24.6563 26.7413C24.5111 26.654 24.3456 26.6062 24.1763 26.6025C24.0861 26.603 23.9964 26.6163 23.91 26.6419C22.9493 26.9177 21.9545 27.0565 20.955 27.0544V27.0544ZM16.995 17.8913C17.1091 18.0664 17.2665 18.2091 17.4519 18.3055C17.6374 18.4019 17.8446 18.4487 18.0534 18.4415C18.2623 18.4343 18.4658 18.3732 18.6441 18.2642C18.8224 18.1552 18.9696 18.002 19.0713 17.8194C19.173 17.6368 19.2258 17.4311 19.2246 17.2221C19.2233 17.0131 19.1682 16.8079 19.0644 16.6265C18.9605 16.4451 18.8116 16.2936 18.6321 16.1867C18.4525 16.0798 18.2483 16.0211 18.0394 16.0163C17.8801 16.016 17.7223 16.0473 17.5751 16.1082C17.4279 16.1691 17.2942 16.2584 17.1817 16.3712C17.0691 16.4839 16.98 16.6177 16.9193 16.765C16.8586 16.9123 16.8276 17.0701 16.8281 17.2294C16.8162 17.462 16.8751 17.6928 16.9969 17.8913H16.995ZM23.055 17.8932C23.1697 18.0682 23.3278 18.2106 23.5138 18.3063C23.6999 18.4021 23.9076 18.448 24.1167 18.4396C24.3259 18.4312 24.5292 18.3688 24.707 18.2584C24.8848 18.1481 25.031 17.9935 25.1313 17.8098C25.2316 17.6261 25.2825 17.4196 25.2793 17.2104C25.276 17.0011 25.2185 16.7963 25.1125 16.6158C25.0065 16.4354 24.8556 16.2855 24.6744 16.1807C24.4932 16.076 24.288 16.02 24.0788 16.0182C23.7587 16.0187 23.4518 16.146 23.2255 16.3724C22.9991 16.5987 22.8717 16.9056 22.8713 17.2257C22.8641 17.4616 22.9281 17.6941 23.055 17.8932Z" fill="#333333"/>
<path d="M0 12.7988C0 15.5269 1.46437 17.9831 3.75187 19.6538C3.87954 19.7435 3.97468 19.8723 4.02301 20.0207C4.07135 20.1691 4.0703 20.3291 4.02 20.4769L3.71813 21.6019L3.53063 22.3013C3.49807 22.3854 3.47786 22.4738 3.47062 22.5638C3.47038 22.6113 3.47957 22.6585 3.49766 22.7025C3.51576 22.7465 3.54241 22.7865 3.57606 22.8202C3.60971 22.8538 3.64971 22.8805 3.69372 22.8986C3.73774 22.9167 3.78491 22.9259 3.8325 22.9256C3.90562 22.9256 3.97687 22.9069 4.04062 22.8712L6.41813 21.4969C6.59292 21.3924 6.79202 21.3355 6.99562 21.3319C7.10437 21.3319 7.21312 21.3488 7.31625 21.3788C8.30851 21.6635 9.33156 21.8271 10.3631 21.8662C10.1415 21.1041 10.0298 20.3143 10.0312 19.5206C10.0312 14.0156 15.2531 10.1081 20.9512 10.1081C21.045 10.1081 21.1388 10.1081 21.2325 10.1119C19.8506 6.42938 15.735 3.75 10.8675 3.75C4.8675 3.75 0 7.8 0 12.7988ZM8.685 9.88312C8.685 10.266 8.53289 10.6333 8.26214 10.904C7.99138 11.1748 7.62416 11.3269 7.24125 11.3269C6.85834 11.3269 6.49112 11.1748 6.22036 10.904C5.94961 10.6333 5.7975 10.266 5.7975 9.88312C5.7975 9.50022 5.94961 9.133 6.22036 8.86224C6.49112 8.59148 6.85834 8.43937 7.24125 8.43937C7.62416 8.43937 7.99138 8.59148 8.26214 8.86224C8.53289 9.133 8.685 9.50022 8.685 9.88312V9.88312ZM15.9506 9.88312C15.9506 10.266 15.7985 10.6333 15.5278 10.904C15.257 11.1748 14.8898 11.3269 14.5069 11.3269C14.124 11.3269 13.7567 11.1748 13.486 10.904C13.2152 10.6333 13.0631 10.266 13.0631 9.88312C13.0631 9.50022 13.2152 9.133 13.486 8.86224C13.7567 8.59148 14.124 8.43937 14.5069 8.43937C14.8898 8.43937 15.257 8.59148 15.5278 8.86224C15.7985 9.133 15.9506 9.50022 15.9506 9.88312Z" fill="#333333"/>
</svg>
