<svg width="24" height="24" viewBox="0 0 24 24" fill="none" xmlns="http://www.w3.org/2000/svg">
<path d="M12 21C10.7369 19.9226 9.56619 18.7415 8.5 17.469C6.9 15.558 5 12.712 5 10C4.99931 8.61496 5.40951 7.26085 6.17869 6.10903C6.94788 4.95721 8.04147 4.05946 9.32107 3.5294C10.6007 2.99934 12.0087 2.86079 13.3671 3.13129C14.7255 3.40179 15.9731 4.06918 16.952 5.049C17.6038 5.69786 18.1203 6.46954 18.4719 7.31937C18.8234 8.16921 19.0029 9.08033 19 10C19 12.712 17.1 15.558 15.5 17.469C14.4338 18.7415 13.2631 19.9226 12 21ZM12 7C11.2044 7 10.4413 7.31607 9.87868 7.87868C9.31607 8.44129 9 9.20435 9 10C9 10.7957 9.31607 11.5587 9.87868 12.1213C10.4413 12.6839 11.2044 13 12 13C12.7957 13 13.5587 12.6839 14.1213 12.1213C14.6839 11.5587 15 10.7957 15 10C15 9.20435 14.6839 8.44129 14.1213 7.87868C13.5587 7.31607 12.7957 7 12 7Z" fill="#EC1B2E"/>
</svg>
